HIERARCHY
ROOT Hips
{
  OFFSET 5.84602e-005 68.8428 3.50346
  CHANNELS 6 Xposition Yposition Zposition Zrotation Xrotation Yrotation
  JOINT Spine
  {
    OFFSET 0 8.597 -4.6522
    CHANNELS 3 Zrotation Xrotation Yrotation
    JOINT Spine1
    {
      OFFSET 0 7.8454 0.4098
      CHANNELS 3 Zrotation Xrotation Yrotation
      JOINT Spine2
      {
        OFFSET 0 9.7078 -2.1609
        CHANNELS 3 Zrotation Xrotation Yrotation
        JOINT Neck
        {
          OFFSET 0 21.8761 -0.4549
          CHANNELS 3 Zrotation Xrotation Yrotation
          JOINT Head
          {
            OFFSET 0 12.3537 3.3602
            CHANNELS 3 Zrotation Xrotation Yrotation
            End Site
            {
              OFFSET 0.0001 18.9506 0.5657
            }
          }
        }
        JOINT LeftShoulder
        {
          OFFSET 2.2086 21.1115 7.2329
          CHANNELS 3 Zrotation Xrotation Yrotation
          JOINT LeftArm
          {
            OFFSET 13.1193 3.0282 -4.8998
            CHANNELS 3 Zrotation Xrotation Yrotation
            JOINT LeftForeArm
            {
              OFFSET 27.4081 -0.0973053 -0.2375
              CHANNELS 3 Zrotation Xrotation Yrotation
              JOINT LeftHand
              {
                OFFSET 22.8641 0.0662994 -0.1369
                CHANNELS 3 Zrotation Xrotation Yrotation
                JOINT LeftHandIndex1
                {
                  OFFSET 8.8614 0.775009 2.4612
                  CHANNELS 3 Zrotation Xrotation Yrotation
                  JOINT LeftHandIndex2
                  {
                    OFFSET 3.3146 -0.808304 0.5841
                    CHANNELS 3 Zrotation Xrotation Yrotation
                    JOINT LeftHandIndex3
                    {
                      OFFSET 2.2628 -0.552002 0.3989
                      CHANNELS 3 Zrotation Xrotation Yrotation
                      End Site
                      {
                        OFFSET 1.6102 -0.4807 0.2612
                      }
                    }
                  }
                }
                JOINT LeftHandMiddle1
                {
                  OFFSET 8.9937 0.895004 0.2143
                  CHANNELS 3 Zrotation Xrotation Yrotation
                  JOINT LeftHandMiddle2
                  {
                    OFFSET 4.0984 0.0113983 -0.0242
                    CHANNELS 3 Zrotation Xrotation Yrotation
                    JOINT LeftHandMiddle3
                    {
                      OFFSET 2.2716 0.00689697 -0.0138001
                      CHANNELS 3 Zrotation Xrotation Yrotation
                      End Site
                      {
                        OFFSET 2.0404 -0.1441 0.0027
                      }
                    }
                  }
                }
                JOINT LeftHandRing1
                {
                  OFFSET 8.5234 0.597198 -2.0164
                  CHANNELS 3 Zrotation Xrotation Yrotation
                  JOINT LeftHandRing2
                  {
                    OFFSET 3.7188 -0.188293 -0.2328
                    CHANNELS 3 Zrotation Xrotation Yrotation
                    JOINT LeftHandRing3
                    {
                      OFFSET 2.1191 -0.106598 -0.1332
                      CHANNELS 3 Zrotation Xrotation Yrotation
                      End Site
                      {
                        OFFSET 1.8737 -0.2304 -0.0886
                      }
                    }
                  }
                }
                JOINT LeftHandPinky1
                {
                  OFFSET 7.9094 -0.601089 -3.4825
                  CHANNELS 3 Zrotation Xrotation Yrotation
                  JOINT LeftHandPinky2
                  {
                    OFFSET 2.2874 -0.477005 -0.6314
                    CHANNELS 3 Zrotation Xrotation Yrotation
                    JOINT LeftHandPinky3
                    {
                      OFFSET 1.6774 -0.349396 -0.4633
                      CHANNELS 3 Zrotation Xrotation Yrotation
                      End Site
                      {
                        OFFSET 1.4888 -0.4091 -0.3416
                      }
                    }
                  }
                }
                JOINT LeftHandThumb1
                {
                  OFFSET 1.833 -1.3875 1.3896
                  CHANNELS 3 Zrotation Xrotation Yrotation
                  JOINT LeftHandThumb2
                  {
                    OFFSET 3.4129 -1.121 2.5732
                    CHANNELS 3 Zrotation Xrotation Yrotation
                    JOINT LeftHandThumb3
                    {
                      OFFSET 2.2474 -0.804199 1.6192
                      CHANNELS 3 Zrotation Xrotation Yrotation
                      End Site
                      {
                        OFFSET 1.6527 -0.5689 1.1317
                      }
                    }
                  }
                }
              }
            }
          }
        }
        JOINT RightShoulder
        {
          OFFSET -2.2086 21.1115 7.2329
          CHANNELS 3 Zrotation Xrotation Yrotation
          JOINT RightArm
          {
            OFFSET -13.1216 3.0287 -4.9007
            CHANNELS 3 Zrotation Xrotation Yrotation
            JOINT RightForeArm
            {
              OFFSET -27.4081 -0.0973053 -0.2375
              CHANNELS 3 Zrotation Xrotation Yrotation
              JOINT RightHand
              {
                OFFSET -22.8641 0.0664063 -0.1369
                CHANNELS 3 Zrotation Xrotation Yrotation
                JOINT RightHandIndex1
                {
                  OFFSET -8.8614 0.774994 2.4612
                  CHANNELS 3 Zrotation Xrotation Yrotation
                  JOINT RightHandIndex2
                  {
                    OFFSET -3.3146 -0.808304 0.5841
                    CHANNELS 3 Zrotation Xrotation Yrotation
                    JOINT RightHandIndex3
                    {
                      OFFSET -2.2628 -0.552002 0.3989
                      CHANNELS 3 Zrotation Xrotation Yrotation
                      End Site
                      {
                        OFFSET -1.6102 -0.4807 0.2612
                      }
                    }
                  }
                }
                JOINT RightHandMiddle1
                {
                  OFFSET -8.9937 0.894989 0.2143
                  CHANNELS 3 Zrotation Xrotation Yrotation
                  JOINT RightHandMiddle2
                  {
                    OFFSET -4.0984 0.0113983 -0.0242
                    CHANNELS 3 Zrotation Xrotation Yrotation
                    JOINT RightHandMiddle3
                    {
                      OFFSET -2.2716 0.00691223 -0.0138001
                      CHANNELS 3 Zrotation Xrotation Yrotation
                      End Site
                      {
                        OFFSET -2.0404 -0.1441 0.0027
                      }
                    }
                  }
                }
                JOINT RightHandRing1
                {
                  OFFSET -8.5234 0.597198 -2.0164
                  CHANNELS 3 Zrotation Xrotation Yrotation
                  JOINT RightHandRing2
                  {
                    OFFSET -3.7188 -0.188309 -0.2328
                    CHANNELS 3 Zrotation Xrotation Yrotation
                    JOINT RightHandRing3
                    {
                      OFFSET -2.1191 -0.106598 -0.1332
                      CHANNELS 3 Zrotation Xrotation Yrotation
                      End Site
                      {
                        OFFSET -1.8737 -0.2304 -0.0886
                      }
                    }
                  }
                }
                JOINT RightHandPinky1
                {
                  OFFSET -7.9094 -0.601105 -3.4825
                  CHANNELS 3 Zrotation Xrotation Yrotation
                  JOINT RightHandPinky2
                  {
                    OFFSET -2.2874 -0.477005 -0.6314
                    CHANNELS 3 Zrotation Xrotation Yrotation
                    JOINT RightHandPinky3
                    {
                      OFFSET -1.6774 -0.349396 -0.4633
                      CHANNELS 3 Zrotation Xrotation Yrotation
                      End Site
                      {
                        OFFSET -1.4888 -0.4091 -0.3416
                      }
                    }
                  }
                }
                JOINT RightHandThumb1
                {
                  OFFSET -1.833 -1.38751 1.3896
                  CHANNELS 3 Zrotation Xrotation Yrotation
                  JOINT RightHandThumb2
                  {
                    OFFSET -3.41299 -1.12099 2.5732
                    CHANNELS 3 Zrotation Xrotation Yrotation
                    JOINT RightHandThumb3
                    {
                      OFFSET -2.24741 -0.804108 1.6192
                      CHANNELS 3 Zrotation Xrotation Yrotation
                      End Site
                      {
                        OFFSET -1.6527 -0.5689 1.1317
                      }
                    }
                  }
                }
              }
            }
          }
        }
      }
    }
  }
  JOINT RightUpLeg
  {
    OFFSET -9.1966 3.8861 -0.7581
    CHANNELS 3 Zrotation Xrotation Yrotation
    JOINT RightLeg
    {
      OFFSET -0.7359 -41.0265 0
      CHANNELS 3 Zrotation Xrotation Yrotation
      JOINT RightFoot
      {
        OFFSET 0 -40.2855 0
        CHANNELS 3 Zrotation Xrotation Yrotation
        JOINT RightToeBase
        {
          OFFSET 0 -5.6122 11.7359
          CHANNELS 3 Zrotation Xrotation Yrotation
          End Site
          {
            OFFSET 0 0 7.8731
          }
        }
      }
    }
  }
  JOINT LeftUpLeg
  {
    OFFSET 9.1965 3.8864 -0.7581
    CHANNELS 3 Zrotation Xrotation Yrotation
    JOINT LeftLeg
    {
      OFFSET 0.7359 -41.0268 0
      CHANNELS 3 Zrotation Xrotation Yrotation
      JOINT LeftFoot
      {
        OFFSET 0 -40.2855 0
        CHANNELS 3 Zrotation Xrotation Yrotation
        JOINT LeftToeBase
        {
          OFFSET 0 -5.6122 11.7359
          CHANNELS 3 Zrotation Xrotation Yrotation
          End Site
          {
            OFFSET 0 0 7.8731
          }
        }
      }
    }
  }
}
MOTION
Frames:	7
Frame Time:	0.0333333
5.84602e-005 68.8428 3.50346 0 0 -0 0 0 -0 0 0 -0 0 0 -0 0 0 -0 0 0 -0 0 0 -0 0 0 -0 0 0 -0 0 0 -0 0 0 -0 0 0 -0 0 0 -0 0 0 -0 -0.0146107 -8.87603e-005 -2.63497e-007 2.99804e-018 -2.42657e-020 -1.42182e-022 0 0 -0 -0.0187562 -0.001176 5.858e-005 5.06224e-018 3.88251e-019 1.21329e-020 0 0 -0 -0.012269 -0.00324817 0.000675346 -1.74678e-018 3.88251e-019 -0 0 0 -0 0 0 -0 0 0 -0 0 0 -0 0 0 -0 0 0 -0 0 0 -0 0 0 -0 0 0 -0 0 0 -0 0 0 -0 0.0149955 -9.10982e-005 2.64101e-007 -9.69331e-018 1.21329e-020 -4.7394e-023 0 0 -0 0.0189956 -0.00119102 -5.96516e-005 -5.41541e-019 0 2.42657e-020 0 0 -0 0.0122698 -0.00324857 -0.000673756 -2.00796e-019 0 -1.94126e-019 0 0 -0 0 0 -0 0 0 -0 3.39842 1.33031 -0.0637918 -5.65207e-008 0.834868 -0.000436188 -3.39935 -2.16518 -0.0642563 -8.89002e-024 -1.18485e-023 -1.48106e-024 -3.39844 1.35642 0.0640283 -3.18788e-007 0.782166 -0.000588827 3.39931 -2.13858 0.0634662 1.1399e-023 0 -0 
-0.460798 65.7685 5.01529 0 0.180497 -0 -0.184132 3.003 -0.0994691 -0.363788 6.00637 -0.18965 -0.363788 6.00636 -0.18965 3.15942e-006 -0.54787 -6.51413e-007 -2.45381e-007 -0.409546 -1.08501e-007 -5.92789 -0.14404 6.33691e-007 -42.7888 -0.334338 -2.9643 1.94037e-005 -7.41887e-006 -19.2604 -5.18542 -1.62568e-006 -7.68524e-007 -1.39211e-007 3.42846e-007 1.1473e-006 1.39211e-007 -3.42846e-007 -1.1473e-006 8.73682e-008 2.96897e-008 -9.46184e-007 -1.39211e-007 3.42846e-007 1.1473e-006 -0.0145708 -8.94098e-005 -5.20356e-008 8.73785e-008 2.98101e-008 -9.4618e-007 -1.39211e-007 3.42846e-007 1.1473e-006 -0.0187152 -0.00117428 5.99117e-005 8.73726e-008 2.98451e-008 -9.4618e-007 -1.39211e-007 3.42846e-007 1.1473e-006 -0.0122909 -0.00325334 0.000678206 8.73508e-008 2.97931e-008 -9.46184e-007 -1.39211e-007 3.42846e-007 1.1473e-006 1.39211e-007 -3.42846e-007 -1.1473e-006 8.73682e-008 2.96897e-008 -9.46184e-007 5.9253 -0.144221 -9.81988e-007 42.7858 -0.335694 2.96202 -1.27817e-006 -1.33206e-006 19.2577 5.18282 2.54553e-006 -1.3415e-006 -4.17448e-015 0 4.77083e-015 -1.39544e-007 -2.79001e-007 1.07423e-007 -8.82781e-032 1.59028e-015 3.18055e-015 -4.17448e-015 0 4.77083e-015 0.0150298 -9.24419e-005 2.60931e-007 -4.37326e-015 0 -3.18055e-015 -4.17448e-015 0 4.77083e-015 0.0189429 -0.00118787 -6.24604e-005 1.8369e-007 -1.94775e-007 1.74618e-007 -4.17448e-015 0 4.77083e-015 0.0122694 -0.00324699 -0.000675647 1.98785e-015 0 -4.77083e-015 -4.17448e-015 0 4.77083e-015 -1.39544e-007 -2.79001e-007 1.07423e-007 -8.82781e-032 1.59028e-015 3.18055e-015 -3.05089 -15.9835 -10.0174 -1.39646 33.6664 0.999061 7.89471 -17.1111 -1.57221 4.96994e-008 -5.42635e-008 -1.77135e-006 3.84037 -15.8587 10.1053 1.20021 33.4484 -0.915739 -8.48023 -16.7933 1.30096 -1.13161e-007 -5.53577e-008 9.98944e-007 
-0.668231 64.4114 5.85317 -0 -0.631282 -0 -0.255239 4.5321 -0.153963 -0.500578 9.06486 -0.28896 -0.500578 9.06487 -0.28896 9.15843e-006 -1.08989 -1.04519e-006 6.98241e-008 -0.81697 -2.61411e-008 -8.59545 -0.20888 -1.27239e-006 -62.0551 -0.484082 -4.29832 1.70371e-005 -1.0636e-006 -27.9275 -7.51887 -4.26992e-007 -1.35075e-006 9.62362e-006 -7.89646e-008 1.1229e-006 4.53268e-008 7.84469e-007 -1.5616e-006 2.54168e-008 -1.60645e-007 -1.3822e-007 9.62362e-006 -7.89646e-008 1.1229e-006 -0.0146313 -8.81984e-005 -3.78481e-007 2.54168e-008 -1.60627e-007 -1.3824e-007 9.62362e-006 -7.89646e-008 1.1229e-006 -0.0187658 -0.00117573 5.77201e-005 2.54155e-008 -1.60622e-007 -1.38246e-007 9.62362e-006 -7.89646e-008 1.1229e-006 -0.0122609 -0.00324425 0.000674854 2.5412e-008 -1.6063e-007 -1.38238e-007 9.62362e-006 -7.89646e-008 1.1229e-006 4.53268e-008 7.84469e-007 -1.5616e-006 2.54168e-008 -1.60645e-007 -1.3822e-007 8.59169 -0.209145 1.87416e-006 62.0508 -0.486041 4.29501 1.72813e-005 3.80063e-006 27.9237 7.51514 -3.32601e-006 -2.12778e-006 -1.78859e-008 -1.23218e-007 1.00612e-007 5.96196e-009 4.10727e-008 -3.35372e-008 -1.78859e-008 -1.23218e-007 1.00612e-007 -1.78859e-008 -1.23218e-007 1.00612e-007 0.0149401 -9.04683e-005 2.93075e-007 -1.78859e-008 -1.23205e-007 1.00628e-007 -1.78859e-008 -1.23218e-007 1.00612e-007 0.0190388 -0.00119394 -6.00093e-005 3.31357e-006 -4.40643e-007 2.90202e-007 -1.78859e-008 -1.23218e-007 1.00612e-007 0.0121952 -0.00322756 -0.000670655 -1.78824e-008 -1.23208e-007 1.00625e-007 -1.78859e-008 -1.23218e-007 1.00612e-007 5.96196e-009 4.10727e-008 -3.35372e-008 -1.78859e-008 -1.23218e-007 1.00612e-007 -7.75395 -21.9874 -15.0622 -2.70208 47.2074 1.79416 12.7485 -23.3458 -2.36648 1.20934e-008 1.20748e-007 1.67511e-006 8.89078 -21.8144 15.1724 2.37666 46.9072 -1.63897 -13.6525 -22.8965 1.95548 -2.24757e-008 6.82966e-008 -1.67886e-006 
-0.622144 64.8396 6.01542 -0 -2.43671 -0 -0.233277 4.58814 -0.138109 -0.457629 9.17679 -0.258656 -0.457629 9.17679 -0.258656 3.81966e-006 -1.62634 -1.46672e-006 1.60381e-007 -1.22235 1.4919e-007 -8.00266 -0.194455 1.27345e-006 -57.7731 -0.450869 -4.00186 -1.60535e-006 2.66593e-006 -26.0015 -7.00033 3.05892e-006 -2.89832e-006 1.18485e-006 -3.84666e-007 3.69888e-007 3.93437e-008 -2.50262e-007 -1.95744e-007 1.31146e-008 -8.34208e-008 -6.5248e-008 1.18485e-006 -3.84666e-007 3.69888e-007 -0.0146437 -8.87943e-005 -1.20848e-006 1.31144e-008 -8.34125e-008 -6.52586e-008 1.18485e-006 -3.84666e-007 3.69888e-007 -0.0187334 -0.00117593 5.91669e-005 1.31137e-008 -8.34101e-008 -6.52617e-008 1.18485e-006 -3.84666e-007 3.69888e-007 -0.012179 -0.00322499 0.000670591 1.31121e-008 -8.3414e-008 -6.52572e-008 1.18485e-006 -3.84666e-007 3.69888e-007 3.93437e-008 -2.50262e-007 -1.95744e-007 1.31146e-008 -8.34208e-008 -6.5248e-008 7.99916 -0.194704 -1.14909e-006 57.7691 -0.452693 3.99878 -1.69634e-005 -9.0829e-006 25.9979 6.99682 1.39905e-006 4.74883e-007 1.23005e-008 8.49897e-008 -6.33589e-008 3.05159e-008 1.31121e-006 1.13808e-006 -4.30518e-008 -2.97464e-007 2.21756e-007 1.23005e-008 8.49897e-008 -6.33589e-008 0.0149588 -9.10504e-005 -1.09153e-006 -4.30513e-008 -2.97435e-007 2.21795e-007 1.23005e-008 8.49897e-008 -6.33589e-008 0.0190316 -0.00119175 -5.94059e-005 -4.30489e-008 -2.97427e-007 2.21806e-007 1.23005e-008 8.49897e-008 -6.33589e-008 0.0122434 -0.00324045 -0.000673698 -4.30435e-008 -2.97441e-007 2.21789e-007 1.23005e-008 8.49897e-008 -6.33589e-008 3.05159e-008 1.31121e-006 1.13808e-006 -4.30518e-008 -2.97464e-007 2.21756e-007 -6.59175 -18.3221 -13.7427 -2.21236 43.6945 1.49695 11.6821 -21.9683 -2.17991 -1.76748e-008 1.05001e-007 -7.17803e-009 7.63826 -18.1644 13.8197 1.93967 43.4101 -1.3728 -12.5124 -21.5485 1.80133 4.04446e-008 -1.23959e-007 3.36719e-006 
-0.622152 64.95 6.29798 -0 -4.06823 -0 -0.227713 4.91231 -0.135753 -0.446168 9.82514 -0.25323 -0.446168 9.82515 -0.25323 -1.65308e-006 -2.16477 -2.33332e-007 3.33594e-007 -1.62848 1.22631e-007 -8.00266 -0.194469 -6.10395e-007 -57.7731 -0.450869 -4.00186 6.68498e-006 1.08543e-006 -26.0015 -7.00032 -3.75392e-006 3.59733e-006 -5.36719e-015 -1.59028e-015 1.59028e-015 2.62579e-008 -1.6688e-007 -1.3044e-007 5.96354e-016 -1.59028e-015 -1.59028e-015 -5.36719e-015 -1.59028e-015 1.59028e-015 -0.0146439 -8.9325e-005 -1.76456e-006 1.78906e-015 3.18055e-015 -0 -5.36719e-015 -1.59028e-015 1.59028e-015 -0.0187541 -0.00117648 5.9436e-005 -5.96354e-016 -1.59028e-015 3.18055e-015 -5.36719e-015 -1.59028e-015 1.59028e-015 -0.0123193 -0.00326245 0.000679053 -3.57812e-015 -1.59028e-015 3.18055e-015 -5.36719e-015 -1.59028e-015 1.59028e-015 2.62579e-008 -1.6688e-007 -1.3044e-007 5.96354e-016 -1.59028e-015 -1.59028e-015 7.99916 -0.194718 5.87397e-007 57.7691 -0.452696 3.99878 -2.91006e-006 6.15461e-007 25.9979 6.99684 -1.23162e-006 -9.27526e-007 6.149e-009 4.24855e-008 -3.16924e-008 1.2298e-008 8.4971e-008 -6.33848e-008 2.4596e-008 1.69942e-007 -1.2677e-007 6.149e-009 4.24855e-008 -3.16924e-008 0.0149393 -9.06681e-005 1.63814e-006 2.45957e-008 1.69925e-007 -1.26792e-007 6.149e-009 4.24855e-008 -3.16924e-008 0.0189669 -0.0011883 -5.79006e-005 2.45944e-008 1.69921e-007 -1.26798e-007 6.149e-009 4.24855e-008 -3.16924e-008 0.012262 -0.00324582 -0.0006768 2.45913e-008 1.69929e-007 -1.26788e-007 6.149e-009 4.24855e-008 -3.16924e-008 1.2298e-008 8.4971e-008 -6.33848e-008 2.4596e-008 1.69942e-007 -1.2677e-007 -6.57496 -16.3791 -13.6173 -2.09665 43.2649 1.43276 11.6784 -21.966 -2.18088 -3.55057e-008 2.09976e-007 -1.43195e-008 7.61137 -16.2241 13.6714 1.83915 42.9776 -1.31718 -12.509 -21.5467 1.8022 -3.97569e-015 -7.95139e-016 -3.18055e-015 
-0.622159 65.0663 6.57792 -0 -5.70454 -0 -0.222158 5.23675 -0.133229 -0.434771 10.474 -0.247529 -0.434771 10.474 -0.247529 -8.46444e-007 -2.70398 -6.5961e-007 -3.8003e-007 -2.03491 4.65998e-008 -8.00266 -0.194458 7.09919e-007 -57.7731 -0.450864 -4.00186 -8.09834e-006 -4.15273e-006 -26.0015 -7.00029 1.2099e-006 3.64405e-006 5.25759e-008 -3.3384e-007 -2.60767e-007 1.22609e-006 -2.72385e-008 -4.2911e-007 4.25993e-006 -4.96086e-008 -2.17617e-007 5.25759e-008 -3.3384e-007 -2.60767e-007 -0.0145907 -8.76711e-005 -1.17957e-007 4.26063e-006 -4.95768e-008 -2.17627e-007 5.25759e-008 -3.3384e-007 -2.60767e-007 -0.018716 -0.00117382 6.01566e-005 1.2508e-006 -1.94167e-007 -5.59533e-007 5.25759e-008 -3.3384e-007 -2.60767e-007 -0.0122857 -0.00324935 0.000674926 4.26051e-006 -4.94562e-008 -2.17776e-007 5.25759e-008 -3.3384e-007 -2.60767e-007 1.22609e-006 -2.72385e-008 -4.2911e-007 4.25993e-006 -4.96086e-008 -2.17617e-007 7.99916 -0.194706 -9.73171e-007 57.7691 -0.45269 3.99878 9.74686e-006 2.7604e-006 25.9979 6.99683 3.35501e-007 3.79152e-006 -6.13051e-008 1.25001e-007 9.64962e-007 -2.45977e-008 -1.69904e-007 1.26821e-007 -6.13051e-008 1.25001e-007 9.64962e-007 -6.13051e-008 1.25001e-007 9.64962e-007 0.0150081 -9.15135e-005 -1.52121e-007 -6.13168e-008 1.25127e-007 9.64946e-007 -6.13051e-008 1.25001e-007 9.64962e-007 0.0190339 -0.00119423 -6.1702e-005 -6.13109e-008 1.25162e-007 9.64942e-007 -6.13051e-008 1.25001e-007 9.64962e-007 0.0122372 -0.00323924 -0.000674841 -6.12887e-008 1.25106e-007 9.64951e-007 -6.13051e-008 1.25001e-007 9.64962e-007 -2.45977e-008 -1.69904e-007 1.26821e-007 -6.13051e-008 1.25001e-007 9.64962e-007 -6.5621 -14.4277 -13.4929 -1.98237 42.835 1.37023 11.6747 -21.9638 -2.18184 -2.28602e-015 -3.97569e-016 -6.36111e-015 7.58917 -14.2764 13.5246 1.7402 42.5459 -1.26303 -12.5056 -21.5449 1.80305 1.78443e-008 1.04974e-007 7.1089e-009 
-0.62216 65.1885 6.85501 -0 -7.34514 -0 -0.216617 5.56143 -0.130537 -0.423449 11.1232 -0.241551 -0.423448 11.1232 -0.241551 7.71855e-007 -3.24385 -1.45129e-007 1.55425e-007 -2.44165 2.45408e-008 -8.00266 -0.194466 -3.0637e-007 -57.7731 -0.450864 -4.00186 9.2244e-006 -5.73754e-006 -26.0015 -7.00031 2.35166e-006 9.02818e-008 1.19271e-015 0 -1.59028e-015 1.31594e-008 -8.34803e-008 -6.51628e-008 -1.59028e-015 -3.18055e-015 3.18055e-015 1.19271e-015 0 -1.59028e-015 -0.0146445 -8.97795e-005 4.59928e-007 -3.57812e-015 -3.18055e-015 -0 1.19271e-015 0 -1.59028e-015 -0.0187354 -0.00117483 6.01104e-005 1.59028e-015 1.59028e-015 1.59028e-015 1.19271e-015 0 -1.59028e-015 -0.0122126 -0.00323232 0.000673047 -4.41391e-032 1.59028e-015 1.59028e-015 1.19271e-015 0 -1.59028e-015 1.31594e-008 -8.34803e-008 -6.51628e-008 -1.59028e-015 -3.18055e-015 3.18055e-015 7.99916 -0.194719 6.9768e-007 57.7691 -0.452693 3.99878 2.2941e-006 -3.85881e-006 25.9979 6.99683 -6.62185e-007 -8.31237e-007 -4.30601e-008 -2.97263e-007 2.22026e-007 -3.69087e-008 -2.54797e-007 1.90308e-007 -1.19271e-015 1.59028e-015 -1.59028e-015 -4.30601e-008 -2.97263e-007 2.22026e-007 0.0150561 -9.15181e-005 2.19856e-006 2.78299e-015 3.18055e-015 1.59028e-015 -4.30601e-008 -2.97263e-007 2.22026e-007 0.0190678 -0.00119642 -5.97065e-005 4.77083e-015 -1.59028e-015 -3.18055e-015 -4.30601e-008 -2.97263e-007 2.22026e-007 0.0122311 -0.00323773 -0.000672945 -3.18055e-015 3.18055e-015 -0 -4.30601e-008 -2.97263e-007 2.22026e-007 -3.69087e-008 -2.54797e-007 1.90308e-007 -1.19271e-015 1.59028e-015 -1.59028e-015 -6.55324 -12.4687 -13.3695 -1.86947 42.4047 1.3093 11.6709 -21.9614 -2.18282 3.47318e-008 9.10146e-009 1.6865e-006 7.5718 -12.3206 13.3792 1.64229 42.1132 -1.21026 -12.5022 -21.543 1.80392 1.79273e-008 1.0496e-007 7.08918e-009 
